<svg width="6460" height="2827" viewBox="0 0 6460 2827" fill="none" xmlns="http://www.w3.org/2000/svg">
<g filter="url(#filter0_n_22_33)">
<rect x="3581.52" width="975.898" height="1954.84" rx="487.949" transform="rotate(45 3581.52 0)" fill="#F1F1F1"/>
</g>
<path d="M3211.7 1706.5C2940.86 1435.66 2835.54 1435.66 2564.7 1706.5C2835.54 1435.66 2835.54 1330.34 2564.7 1059.5C2835.54 1330.34 2940.86 1330.34 3211.7 1059.5C2940.86 1330.34 2940.86 1435.66 3211.7 1706.5Z" fill="#173F3F"/>
<path d="M6260.48 2461.98C6389.59 2461.98 6459.48 2509.54 6459.48 2635.74V2826.97H6370.17V2635.74C6370.17 2570.7 6331.34 2533.81 6222.62 2533.81C6150.79 2533.81 6089.63 2563.9 6068.28 2609.53V2826.97H5978.97V2461.98H6068.28V2537.69C6095.46 2505.66 6164.38 2461.98 6260.48 2461.98Z" fill="#F5F5F5"/>
<path d="M5598.76 2461.98C5742.43 2461.98 5839.5 2514.4 5839.5 2644.47C5839.5 2773.58 5742.43 2826 5598.76 2826C5455.09 2826 5358.99 2773.58 5358.99 2644.47C5358.99 2514.4 5455.09 2461.98 5598.76 2461.98ZM5598.76 2754.17C5691.95 2754.17 5750.2 2717.28 5750.2 2644.47C5750.2 2570.7 5691.95 2533.81 5598.76 2533.81C5505.57 2533.81 5448.3 2570.7 5448.3 2644.47C5448.3 2717.28 5505.57 2754.17 5598.76 2754.17Z" fill="#F5F5F5"/>
<path d="M5219.57 2431.88H5130.26V2342.58H5219.57V2431.88ZM5219.57 2826H5130.26V2461.98H5219.57V2826Z" fill="#F5F5F5"/>
<path d="M4989.64 2472.65V2543.52H4823.65V2677.48C4823.65 2736.69 4835.3 2754.17 4888.69 2754.17C4916.84 2754.17 4951.78 2748.34 4987.7 2743.49V2815.32C4958.58 2820.18 4905.19 2826 4864.42 2826C4784.82 2826 4734.34 2795.91 4734.34 2728.93V2543.52H4630.47V2472.65H4734.34V2390.14L4823.65 2367.81V2472.65H4989.64Z" fill="#F5F5F5"/>
<path d="M4410.34 2461.98H4499.65V2826.97H4410.34V2770.67C4377.34 2807.56 4331.72 2826 4248.23 2826C4149.22 2826 4036.61 2768.73 4036.61 2644.47C4036.61 2519.25 4149.22 2461.98 4248.23 2461.98C4322.98 2461.98 4394.81 2486.24 4410.34 2517.31V2461.98ZM4278.33 2746.4C4357.93 2746.4 4407.43 2708.54 4407.43 2644.47C4407.43 2579.43 4357.93 2541.58 4278.33 2541.58C4197.75 2541.58 4125.92 2579.43 4125.92 2644.47C4125.92 2708.54 4197.75 2746.4 4278.33 2746.4Z" fill="#F5F5F5"/>
<path d="M3898.16 2826H3808.86V2342.58H3898.16V2826Z" fill="#F5F5F5"/>
<path d="M3654.87 2826H3565.57V2342.58H3654.87V2826Z" fill="#F5F5F5"/>
<path d="M3424.14 2603.7C3428.99 2633.8 3425.11 2671.65 3425.11 2671.65H3038.75C3051.37 2726.01 3105.74 2754.17 3187.28 2754.17C3249.4 2754.17 3297.94 2734.75 3323.18 2702.72H3420.25C3394.04 2789.11 3306.68 2826 3187.28 2826C3042.64 2826 2946.54 2773.58 2946.54 2644.47C2946.54 2514.4 3042.64 2461.98 3187.28 2461.98C3314.44 2461.98 3405.69 2503.72 3424.14 2603.7ZM3044.58 2599.82H3331.92C3310.56 2559.05 3258.14 2533.81 3187.28 2533.81C3114.47 2533.81 3063.99 2556.14 3044.58 2599.82Z" fill="#F5F5F5"/>
<path d="M2829.01 2472.65V2543.52H2663.01V2677.48C2663.01 2736.69 2674.66 2754.17 2728.05 2754.17C2756.2 2754.17 2791.15 2748.34 2827.07 2743.49V2815.32C2797.94 2820.18 2744.55 2826 2703.78 2826C2624.18 2826 2573.7 2795.91 2573.7 2728.93V2543.52H2469.84V2472.65H2573.7V2390.14L2663.01 2367.81V2472.65H2829.01Z" fill="#F5F5F5"/>
<path d="M2339.87 2662.92C2355.4 2693.98 2355.4 2726.99 2337.93 2755.14C2308.81 2802.7 2237.94 2826 2121.46 2826C2020.5 2826 1949.64 2806.59 1911.78 2766.79C1884.6 2738.63 1884.6 2710.48 1884.6 2704.66H1973.91C1978.76 2717.28 1998.17 2736.69 2121.46 2736.69C2246.68 2736.69 2256.39 2722.13 2260.27 2716.31C2264.15 2709.51 2261.24 2702.72 2258.33 2696.89C2239.89 2670.68 2142.81 2678.45 2094.28 2678.45H2081.66C1997.2 2678.45 1892.36 2678.45 1884.6 2593.02C1881.69 2562.93 1890.42 2536.72 1908.87 2516.34C1942.84 2479.45 2008.85 2461.98 2116.6 2461.98C2218.53 2461.98 2288.42 2481.39 2324.34 2520.22C2347.64 2543.52 2350.55 2566.81 2350.55 2576.52H2260.27C2254.45 2565.84 2225.33 2550.31 2116.6 2550.31C2004 2550.31 1989.44 2558.08 1979.73 2566.81C1975.85 2569.73 1971.96 2575.55 1974.88 2586.23C1981.67 2607.59 2048.65 2603.7 2081.66 2603.7H2094.28C2220.47 2603.7 2311.72 2607.59 2339.87 2662.92Z" fill="#F5F5F5"/>
<path d="M1548.64 2461.98C1677.75 2461.98 1747.64 2509.54 1747.64 2635.74V2826.97H1658.34V2635.74C1658.34 2570.7 1619.51 2533.81 1510.78 2533.81C1438.95 2533.81 1377.79 2563.9 1356.44 2609.53V2826.97H1267.13V2461.98H1356.44V2537.69C1383.62 2505.66 1452.54 2461.98 1548.64 2461.98Z" fill="#F5F5F5"/>
<path d="M886.923 2461.98C1030.59 2461.98 1127.66 2514.4 1127.66 2644.47C1127.66 2773.58 1030.59 2826 886.923 2826C743.255 2826 647.152 2773.58 647.152 2644.47C647.152 2514.4 743.255 2461.98 886.923 2461.98ZM886.923 2754.17C980.113 2754.17 1038.36 2717.28 1038.36 2644.47C1038.36 2570.7 980.113 2533.81 886.923 2533.81C793.733 2533.81 736.46 2570.7 736.46 2644.47C736.46 2717.28 793.733 2754.17 886.923 2754.17Z" fill="#F5F5F5"/>
<path d="M316.458 2736.69C371.79 2736.69 417.415 2700.78 432.946 2650.3H524.195C507.693 2750.28 421.298 2826 316.458 2826H210.649C94.161 2826 0 2731.84 0 2615.35C0 2498.86 94.161 2404.7 210.649 2404.7H316.458C421.298 2404.7 507.693 2480.42 524.195 2579.43H432.946C417.415 2529.93 371.79 2494.01 316.458 2494.01H210.649C143.668 2494.01 89.3073 2548.37 89.3073 2615.35C89.3073 2682.33 143.668 2736.69 210.649 2736.69H316.458Z" fill="#F5F5F5"/>
<defs>
<filter id="filter0_n_22_33" x="2401.35" y="202.115" width="1668.12" height="1668.12" filterUnits="userSpaceOnUse" color-interpolation-filters="sRGB">
<feFlood flood-opacity="0" result="BackgroundImageFix"/>
<feBlend mode="normal" in="SourceGraphic" in2="BackgroundImageFix" result="shape"/>
<feTurbulence type="fractalNoise" baseFrequency="0.40000000596046448 0.40000000596046448" stitchTiles="stitch" numOctaves="3" result="noise" seed="5372" />
<feColorMatrix in="noise" type="luminanceToAlpha" result="alphaNoise" />
<feComponentTransfer in="alphaNoise" result="coloredNoise1">
<feFuncA type="discrete" tableValues="0 0 0 0 1 1 1 1 1 1 1 1 1 1 1 1 1 1 1 1 1 1 1 1 1 1 1 1 1 1 1 1 1 1 1 1 1 1 1 1 1 1 1 1 1 1 1 0 0 0 0 0 0 0 0 0 0 0 0 0 0 0 0 0 0 0 0 0 0 0 0 0 0 0 0 0 0 0 0 0 0 0 0 0 0 0 0 0 0 0 0 0 0 0 0 0 0 0 0 0 "/>
</feComponentTransfer>
<feComposite operator="in" in2="shape" in="coloredNoise1" result="noise1Clipped" />
<feFlood flood-color="rgba(83, 80, 80, 0.25)" result="color1Flood" />
<feComposite operator="in" in2="noise1Clipped" in="color1Flood" result="color1" />
<feMerge result="effect1_noise_22_33">
<feMergeNode in="shape" />
<feMergeNode in="color1" />
</feMerge>
</filter>
</defs>
</svg>
